<?xml version="1.0" encoding="utf-8"?>
<!-- Generator: Adobe Illustrator 16.0.0, SVG Export Plug-In . SVG Version: 6.00 Build 0)  -->
<!DOCTYPE svg PUBLIC "-//W3C//DTD SVG 1.1//EN" "http://www.w3.org/Graphics/SVG/1.1/DTD/svg11.dtd">
<svg version="1.1" id="Calque_1" xmlns="http://www.w3.org/2000/svg" xmlns:xlink="http://www.w3.org/1999/xlink" x="0px" y="0px"
	 width="371.749px" height="129.401px" viewBox="0 0 371.749 129.401" enable-background="new 0 0 371.749 129.401"
	 xml:space="preserve">
<g>
	<defs>
		<path id="SVGID_1_" d="M262.821,27.637h5.457c1.752-13.073,11.154-21.789,23.643-21.789c6.949,0,12.411,1.913,15.797,5.534
			c3.041,3.253,4.393,7.716,4.019,13.268c-0.896,13.266-11.247,23.132-28.187,37.805v0.001l-32.544,28.139h53.365l0.982-5.094
			h-41.29l20.554-17.441c19.106-16.217,31.728-26.931,32.875-43.925c0.454-6.702-1.258-12.333-4.948-16.282
			c-4.187-4.478-10.896-6.846-19.401-6.846C276.091,1.007,265.095,10.694,262.821,27.637"/>
	</defs>
	<clipPath id="SVGID_2_">
		<use xlink:href="#SVGID_1_"  overflow="visible"/>
	</clipPath>
	
		<linearGradient id="SVGID_3_" gradientUnits="userSpaceOnUse" x1="-117.019" y1="538.6211" x2="-116.019" y2="538.6211" gradientTransform="matrix(297.2917 -1.3302 -1.3302 -297.2917 35527.7188 160018.4375)">
		<stop  offset="0" style="stop-color:#6C4795"/>
		<stop  offset="1" style="stop-color:#23366C"/>
	</linearGradient>
	<polygon clip-path="url(#SVGID_2_)" fill="url(#SVGID_3_)" points="250.604,1.009 317.945,0.708 318.347,90.593 251.006,90.895 	
		"/>
</g>
<g>
	<defs>
		<path id="SVGID_4_" d="M321.003,21.303h6.026c2.057-9.28,10.283-15.455,20.739-15.455c6.234,0,11.255,1.847,14.521,5.341
			c2.78,2.973,4.085,6.971,3.775,11.561c-0.861,12.749-10.422,20.061-26.232,20.061c-0.779,0-1.702,0-2.614-0.056l-1.058,5.023
			h0.161c8.623,0,14.902,2.04,18.664,6.064c2.893,3.093,4.182,7.251,3.838,12.358c-0.887,13.136-10.768,21.962-24.588,21.962
			c-11.584,0-18.76-6.845-19.358-18.369h-5.392c0.036,7.086,2.033,12.698,5.945,16.688c4.242,4.327,10.499,6.521,18.597,6.521
			c17.246,0,29.563-10.774,30.645-26.81c0.673-9.952-4.242-16.828-13.841-19.361l-3.76-0.992l3.772-0.945
			c12.674-3.176,20.079-11.223,20.85-22.659c0.379-5.597-1.252-10.516-4.718-14.223c-4.146-4.436-10.761-6.878-18.627-6.878
			C334.955,1.134,324.12,9.187,321.003,21.303"/>
	</defs>
	<clipPath id="SVGID_5_">
		<use xlink:href="#SVGID_4_"  overflow="visible"/>
	</clipPath>
	
		<linearGradient id="SVGID_6_" gradientUnits="userSpaceOnUse" x1="-117.019" y1="538.6191" x2="-116.019" y2="538.6191" gradientTransform="matrix(297.2917 -1.3302 -1.3302 -297.2917 35527.7188 160019.6875)">
		<stop  offset="0" style="stop-color:#6C4795"/>
		<stop  offset="1" style="stop-color:#23366C"/>
	</linearGradient>
	<polygon clip-path="url(#SVGID_5_)" fill="url(#SVGID_6_)" points="309.076,1.136 372.073,0.854 372.485,93 309.488,93.282 	"/>
</g>
<g>
	<defs>
		<rect id="SVGID_7_" y="1.676" width="13.025" height="86.311"/>
	</defs>
	<clipPath id="SVGID_8_">
		<use xlink:href="#SVGID_7_"  overflow="visible"/>
	</clipPath>
	
		<linearGradient id="SVGID_9_" gradientUnits="userSpaceOnUse" x1="-117.019" y1="538.6211" x2="-116.019" y2="538.6211" gradientTransform="matrix(297.2917 -1.3302 -1.3302 -297.2917 35527.7188 160016.1875)">
		<stop  offset="0" style="stop-color:#6C4795"/>
		<stop  offset="1" style="stop-color:#23366C"/>
	</linearGradient>
	<polygon clip-path="url(#SVGID_8_)" fill="url(#SVGID_9_)" points="-0.386,1.678 13.025,1.618 13.411,87.985 0,88.045 	"/>
</g>
<g>
	<defs>
		<path id="SVGID_10_" d="M40.36,15.819c-7.267,8.608-10.9,18.41-10.9,29.404c0,12.261,4.341,22.733,13.024,31.416
			c8.721,8.609,19.249,12.913,31.584,12.913c8.198,0,16.025-2.105,23.479-6.317V67.528c-2.124,1.788-4.146,3.317-6.065,4.583
			c-1.92,1.267-3.774,2.274-5.563,3.019c-3.206,1.491-7.099,2.236-11.683,2.236c-8.87,0-16.361-3.111-22.472-9.335
			c-6.112-6.224-9.168-13.864-9.168-22.92c0-9.168,3.056-16.919,9.168-23.255c6.073-6.373,13.546-9.559,22.417-9.559
			c8.049,0,15.838,3.15,23.366,9.447V6.316C90.317,2.105,82.826,0,75.074,0C60.876,0,49.305,5.273,40.36,15.819"/>
	</defs>
	<clipPath id="SVGID_11_">
		<use xlink:href="#SVGID_10_"  overflow="visible"/>
	</clipPath>
	
		<linearGradient id="SVGID_12_" gradientUnits="userSpaceOnUse" x1="-117.019" y1="538.6211" x2="-116.019" y2="538.6211" gradientTransform="matrix(297.2917 -1.3302 -1.3302 -297.2917 35527.7188 160016.4375)">
		<stop  offset="0" style="stop-color:#6C4795"/>
		<stop  offset="1" style="stop-color:#23366C"/>
	</linearGradient>
	<polygon clip-path="url(#SVGID_11_)" fill="url(#SVGID_12_)" points="29.059,0.002 97.545,-0.305 97.948,89.55 29.461,89.857 	"/>
</g>
<g>
	<defs>
		<path id="SVGID_13_" d="M120.578,15.819c-7.267,8.608-10.9,18.41-10.9,29.404c0,12.261,4.34,22.733,13.024,31.416
			c8.721,8.609,19.249,12.913,31.584,12.913c8.199,0,16.025-2.105,23.478-6.317V67.528c-2.125,1.788-4.146,3.317-6.064,4.583
			c-1.92,1.267-3.774,2.274-5.562,3.019c-3.206,1.491-7.1,2.236-11.684,2.236c-8.87,0-16.361-3.111-22.472-9.335
			c-6.113-6.224-9.168-13.864-9.168-22.92c0-9.168,3.055-16.919,9.168-23.255c6.073-6.373,13.546-9.559,22.416-9.559
			c8.05,0,15.84,3.15,23.366,9.447V6.316C170.535,2.105,163.044,0,155.292,0C141.094,0,129.523,5.273,120.578,15.819"/>
	</defs>
	<clipPath id="SVGID_14_">
		<use xlink:href="#SVGID_13_"  overflow="visible"/>
	</clipPath>
	
		<linearGradient id="SVGID_15_" gradientUnits="userSpaceOnUse" x1="-117.019" y1="538.6211" x2="-116.019" y2="538.6211" gradientTransform="matrix(297.2917 -1.3302 -1.3302 -297.2917 35527.7188 160016.6875)">
		<stop  offset="0" style="stop-color:#6C4795"/>
		<stop  offset="1" style="stop-color:#23366C"/>
	</linearGradient>
	<polygon clip-path="url(#SVGID_14_)" fill="url(#SVGID_15_)" points="109.277,0.002 177.763,-0.305 178.165,89.55 109.679,89.857 	
		"/>
</g>
<g>
	<defs>
		<polygon id="SVGID_16_" points="246.635,1.676 222.43,61.49 198.562,1.676 184.306,1.676 222.15,94.472 260.89,1.676 		"/>
	</defs>
	<clipPath id="SVGID_17_">
		<use xlink:href="#SVGID_16_"  overflow="visible"/>
	</clipPath>
	
		<linearGradient id="SVGID_18_" gradientUnits="userSpaceOnUse" x1="-117.019" y1="538.6191" x2="-116.019" y2="538.6191" gradientTransform="matrix(297.2917 -1.3302 -1.3302 -297.2917 35527.7188 160020.1875)">
		<stop  offset="0" style="stop-color:#6C4795"/>
		<stop  offset="1" style="stop-color:#23366C"/>
	</linearGradient>
	<polygon clip-path="url(#SVGID_17_)" fill="url(#SVGID_18_)" points="183.891,1.678 260.888,1.333 261.305,94.47 184.307,94.815 	
		"/>
</g>
<g>
	<path d="M160.045,122.491v6.614h-2.458v-16.287h2.785c1.364,0,2.394,0.095,3.09,0.285c0.703,0.19,1.323,0.548,1.857,1.076
		c0.935,0.914,1.403,2.067,1.403,3.459c0,1.491-0.5,2.672-1.498,3.544c-0.998,0.871-2.345,1.308-4.04,1.308H160.045z
		 M160.045,120.213h0.918c2.257,0,3.386-0.869,3.386-2.605c0-1.681-1.164-2.521-3.492-2.521h-0.812V120.213z"/>
	<path d="M177.628,125.149h-6.971l-1.815,3.956h-2.647l8.058-17.309l7.774,17.309h-2.689L177.628,125.149z M176.627,122.84
		l-2.416-5.538l-2.532,5.538H176.627z"/>
	<path d="M189.579,122.164l5.042,6.941h-3.007l-4.65-6.667h-0.443v6.667h-2.458v-16.287h2.88c2.152,0,3.705,0.405,4.662,1.214
		c1.055,0.9,1.582,2.088,1.582,3.565c0,1.153-0.331,2.145-0.991,2.974C191.533,121.401,190.663,121.933,189.579,122.164
		 M186.52,120.297h0.78c2.327,0,3.491-0.889,3.491-2.667c0-1.667-1.131-2.5-3.396-2.5h-0.875V120.297z"/>
	<rect x="197.068" y="112.818" width="2.458" height="16.287"/>
	<path d="M212.647,115.245l-1.993,1.181c-0.373-0.647-0.729-1.069-1.065-1.265c-0.352-0.225-0.806-0.338-1.361-0.338
		c-0.682,0-1.248,0.193-1.697,0.58c-0.45,0.38-0.676,0.858-0.676,1.435c0,0.795,0.592,1.434,1.772,1.919l1.624,0.665
		c1.322,0.534,2.289,1.188,2.901,1.956c0.611,0.771,0.918,1.714,0.918,2.833c0,1.498-0.5,2.735-1.498,3.712
		c-1.006,0.986-2.254,1.479-3.745,1.479c-1.413,0-2.581-0.419-3.501-1.255c-0.908-0.839-1.475-2.017-1.699-3.535l2.49-0.548
		c0.111,0.956,0.309,1.617,0.591,1.982c0.505,0.704,1.243,1.055,2.214,1.055c0.767,0,1.403-0.257,1.91-0.77
		c0.505-0.513,0.759-1.164,0.759-1.951c0-0.316-0.044-0.606-0.132-0.871c-0.088-0.264-0.225-0.506-0.411-0.728
		s-0.427-0.428-0.723-0.622c-0.295-0.193-0.647-0.378-1.056-0.554l-1.57-0.654c-2.23-0.942-3.345-2.32-3.345-4.134
		c0-1.224,0.469-2.247,1.403-3.07c0.936-0.829,2.099-1.244,3.491-1.244C210.126,112.503,211.592,113.417,212.647,115.245"/>
</g>
</svg>
